<svg width="312" height="70" viewBox="0 0 312 70" fill="none" xmlns="http://www.w3.org/2000/svg">
<g clip-path="url(#clip0_17_138)">
<path d="M133.879 5.67684C133.07 4.37335 131.976 3.37312 130.59 2.67615C129.2 1.98451 127.651 1.63336 125.927 1.63336H114.571V28.98H120.619V19.0256H125.927C127.651 19.0256 129.2 18.6692 130.59 17.9615C131.976 17.2539 133.07 16.2378 133.879 14.9396C134.688 13.6414 135.095 12.0932 135.095 10.3109C135.095 8.52855 134.688 6.98565 133.879 5.67684ZM128.55 12.4763C128.19 13.0668 127.704 13.519 127.085 13.833C126.472 14.1415 125.79 14.2958 125.05 14.2958H120.624V6.35784H125.05C125.795 6.35784 126.472 6.51213 127.085 6.82603C127.704 7.13462 128.19 7.58685 128.55 8.18273C128.909 8.77329 129.089 9.48621 129.089 10.3109C129.089 11.1355 128.909 11.8857 128.55 12.4763Z" fill="white"/>
<path d="M150.031 10.1513V11.7101C149.529 11.2207 148.947 10.8216 148.276 10.4971C147.26 10.0076 146.129 9.75757 144.871 9.75757C143.147 9.75757 141.614 10.1832 140.266 11.0345C138.917 11.891 137.855 13.0509 137.072 14.5193C136.285 15.993 135.899 17.6743 135.899 19.5524C135.899 21.4304 136.29 23.117 137.072 24.5854C137.855 26.0592 138.917 27.219 140.266 28.0703C141.614 28.9268 143.147 29.3525 144.871 29.3525C146.129 29.3525 147.271 29.1024 148.297 28.6129C148.952 28.2937 149.534 27.9053 150.031 27.4318V28.9641H155.804V10.1513H150.031ZM149.106 22.7552C148.334 23.5958 147.319 24.0161 146.066 24.0161C145.267 24.0161 144.553 23.8246 143.908 23.4362C143.269 23.0478 142.766 22.5211 142.407 21.8508C142.047 21.1804 141.868 20.4196 141.868 19.563C141.868 18.7064 142.053 17.9137 142.428 17.238C142.798 16.573 143.3 16.0462 143.924 15.6738C144.553 15.2961 145.283 15.1099 146.103 15.1099C146.922 15.1099 147.646 15.2961 148.281 15.6738C148.91 16.0462 149.396 16.573 149.745 17.238C150.089 17.9084 150.263 18.6851 150.263 19.563C150.263 20.8612 149.878 21.9252 149.111 22.7605L149.106 22.7552Z" fill="white"/>
<path d="M172.358 10.1512V15.1896H168.123V28.9747H162.228V15.1896H157.999V10.1512H162.228V2.36755H168.123V10.1512H172.358Z" fill="white"/>
<path d="M189.404 11.4282L185.904 15.8813C185.645 15.5993 185.327 15.3812 184.941 15.2269C184.555 15.0726 184.117 14.9981 183.63 14.9981C182.652 14.9981 181.875 15.3014 181.299 15.9079C180.722 16.5144 180.431 17.4242 180.431 18.6426V28.98H174.547V10.1513H180.431V11.5824C181.584 10.3694 183.191 9.76288 185.243 9.76288C186.142 9.76288 186.935 9.89589 187.611 10.1672C188.288 10.4439 188.891 10.8589 189.404 11.4282Z" fill="white"/>
<path d="M193.522 7.5549C192.597 7.5549 191.836 7.241 191.233 6.60787C190.63 5.97475 190.329 5.20862 190.329 4.30416C190.329 3.3997 190.63 2.60164 191.233 1.97916C191.836 1.35668 192.597 1.0481 193.522 1.0481C194.447 1.0481 195.204 1.35668 195.796 1.97916C196.388 2.59632 196.679 3.37309 196.679 4.30416C196.679 5.23522 196.383 5.97475 195.796 6.60787C195.204 7.241 194.447 7.5549 193.522 7.5549ZM190.556 28.9747V10.1512H196.446V28.9747H190.556Z" fill="white"/>
<path d="M230.051 17.3178V28.9747H224.161V17.9722C224.161 17.0199 223.87 16.275 223.294 15.743C222.723 15.2162 222.004 14.9502 221.163 14.9502C220.571 14.9502 220.047 15.0726 219.587 15.3173C219.122 15.5674 218.757 15.9026 218.488 16.3442C218.218 16.7858 218.086 17.3231 218.086 17.9669V28.9694H212.196V17.9669C212.196 17.0145 211.905 16.2697 211.329 15.7376C210.753 15.2109 210.039 14.9449 209.198 14.9449C208.606 14.9449 208.083 15.0673 207.618 15.312C207.158 15.5621 206.793 15.8973 206.523 16.3388C206.254 16.7804 206.121 17.3178 206.121 17.9616V28.9641H200.232V10.1513H206.121V11.5346C206.513 11.1887 206.946 10.8908 207.427 10.6354C208.532 10.0555 209.78 9.76288 211.165 9.76288C212.476 9.76288 213.645 10.0608 214.686 10.6514C215.448 11.0876 216.093 11.6463 216.621 12.3273C217.192 11.6729 217.869 11.1355 218.646 10.7099C219.815 10.0821 221.131 9.76288 222.591 9.76288C224.05 9.76288 225.308 10.0661 226.424 10.6727C227.539 11.2792 228.422 12.1464 229.078 13.2637C229.733 14.3863 230.061 15.7376 230.061 17.3125L230.051 17.3178Z" fill="white"/>
<path d="M251.342 14.5087C250.437 13.0243 249.227 11.8538 247.683 11.0025C246.144 10.1513 244.394 9.72565 242.443 9.72565C240.493 9.72565 238.748 10.1566 237.209 11.0238C235.671 11.891 234.449 13.0562 233.551 14.5246C232.652 15.9984 232.202 17.6689 232.202 19.5204C232.202 21.3719 232.652 23.0585 233.551 24.5535C234.449 26.0538 235.671 27.235 237.23 28.0969C238.78 28.9641 240.519 29.395 242.443 29.395C244.368 29.395 246.144 28.9641 247.683 28.0969C249.221 27.2296 250.437 26.0538 251.342 24.5535C252.24 23.0585 252.69 21.3772 252.69 19.5204C252.69 17.6636 252.24 15.993 251.342 14.5087ZM246.16 21.8667C245.811 22.5477 245.32 23.0851 244.68 23.4522C244.04 23.8299 243.295 24.0108 242.443 24.0108C241.592 24.0108 240.894 23.8299 240.249 23.4522C239.61 23.0798 239.107 22.5477 238.748 21.8667C238.388 21.1857 238.208 20.4143 238.208 19.5577C238.208 18.7011 238.388 17.9084 238.748 17.2327C239.107 16.5676 239.61 16.0409 240.249 15.6685C240.889 15.2907 241.624 15.1045 242.443 15.1045C243.263 15.1045 244.03 15.2907 244.659 15.6685C245.288 16.0409 245.78 16.557 246.144 17.2167C246.504 17.8711 246.678 18.6426 246.678 19.5204C246.678 20.3983 246.509 21.1804 246.16 21.8667Z" fill="white"/>
<path d="M249.755 5.6183L247.831 8.1774L242.47 4.83089L237.056 8.1774L235.131 5.6183L240.757 0H244.141L249.755 5.6183Z" fill="white"/>
<path d="M273.468 16.9294V28.9747H267.583V18.2489C267.583 17.2646 267.277 16.4719 266.679 15.8653C266.077 15.2588 265.31 14.9556 264.385 14.9556C263.745 14.9556 263.179 15.0886 262.688 15.3599C262.201 15.6366 261.815 16.0196 261.535 16.5197C261.255 17.0252 261.112 17.5998 261.112 18.2489V28.9747H255.228V10.1513H261.112V11.6303C261.519 11.2579 261.974 10.944 262.481 10.6727C263.618 10.0661 264.913 9.76288 266.346 9.76288C267.779 9.76288 268.958 10.0927 270.026 10.7471C271.089 11.4069 271.929 12.2794 272.548 13.3594C273.161 14.4448 273.468 15.6366 273.468 16.9241V16.9294Z" fill="white"/>
<path d="M279.823 7.5549C278.898 7.5549 278.136 7.241 277.534 6.60787C276.931 5.97475 276.63 5.20862 276.63 4.30416C276.63 3.3997 276.931 2.60164 277.534 1.97916C278.136 1.362 278.903 1.0481 279.823 1.0481C280.743 1.0481 281.504 1.35668 282.096 1.97916C282.689 2.59632 282.979 3.37309 282.979 4.30416C282.979 5.23522 282.683 5.97475 282.096 6.60787C281.504 7.241 280.748 7.5549 279.823 7.5549ZM276.857 28.9747V10.1512H282.747V28.9747H276.857Z" fill="white"/>
<path d="M295.526 29.4003C293.601 29.4003 291.862 28.9694 290.313 28.1022C288.758 27.235 287.537 26.0538 286.638 24.5588C285.739 23.0638 285.29 21.3826 285.29 19.5258C285.29 17.6689 285.739 15.9984 286.638 14.5299C287.537 13.0562 288.753 11.891 290.297 11.0238C291.835 10.1566 293.58 9.72565 295.531 9.72565C297.482 9.72565 299.226 10.1513 300.765 11.0025C302.304 11.8538 303.525 13.0243 304.424 14.5087C305.322 15.993 305.772 17.6636 305.772 19.5258C305.772 21.3879 305.322 23.0638 304.424 24.5588C303.525 26.0592 302.309 27.2403 300.765 28.1022C299.226 28.9694 297.482 29.4003 295.531 29.4003H295.526ZM295.526 24.0161C296.371 24.0161 297.117 23.8299 297.757 23.4522C298.396 23.0798 298.893 22.5477 299.237 21.8614C299.581 21.1751 299.755 20.3983 299.755 19.5204C299.755 18.6426 299.575 17.8764 299.216 17.2167C298.856 16.557 298.365 16.0409 297.736 15.6685C297.106 15.2961 296.366 15.1045 295.52 15.1045C294.674 15.1045 293.966 15.2907 293.326 15.6685C292.686 16.0409 292.184 16.5676 291.825 17.238C291.465 17.9084 291.285 18.6851 291.285 19.563C291.285 20.4409 291.465 21.1857 291.825 21.8667C292.184 22.553 292.686 23.0798 293.326 23.4575C293.966 23.8299 294.701 24.0215 295.52 24.0215L295.526 24.0161Z" fill="white"/>
<path d="M132.785 59.737V62.328H115.348V35.6783H132.552V38.2747H118.155V47.4151H131.553V49.9369H118.155V59.737H132.785Z" fill="white"/>
<path d="M152.606 62.328H149.296L143.85 54.8529L138.288 62.328H135.09L142.217 52.9855L135.402 44.1271H138.748L143.961 51.0223L149.106 44.1271H152.299L145.574 52.9216L152.606 62.328Z" fill="white"/>
<path d="M172.834 48.41C172.046 46.9735 170.989 45.8403 169.656 44.9996C168.319 44.159 166.817 43.7387 165.152 43.7387C163.82 43.7387 162.598 44.01 161.477 44.5527C160.362 45.0954 159.442 45.8669 158.723 46.8618C158.644 46.9735 158.564 47.0852 158.495 47.2076V44.1324H155.799V70.0107H158.495V59.2156C158.559 59.3221 158.628 59.4285 158.702 59.5349C159.405 60.5298 160.314 61.3119 161.419 61.8811C162.519 62.4451 163.767 62.7324 165.152 62.7324C166.817 62.7324 168.329 62.3121 169.672 61.4715C171.021 60.6309 172.078 59.5029 172.85 58.0824C173.622 56.6619 174.002 55.0604 174.002 53.2781C174.002 51.4958 173.611 49.8518 172.834 48.4206V48.41ZM170.37 56.8108C169.82 57.8536 169.054 58.673 168.081 59.2529C167.103 59.8328 165.977 60.1254 164.692 60.1254C163.407 60.1254 162.329 59.8328 161.382 59.2529C160.431 58.673 159.685 57.8536 159.146 56.8108C158.607 55.768 158.337 54.571 158.337 53.2302C158.337 51.8895 158.607 50.6605 159.146 49.6283C159.685 48.6015 160.436 47.7822 161.398 47.1916C162.36 46.5957 163.471 46.2978 164.729 46.2978C165.987 46.2978 167.103 46.5957 168.081 47.1916C169.054 47.7822 169.82 48.6015 170.37 49.6283C170.92 50.6605 171.2 51.8682 171.2 53.2302C171.2 54.5922 170.92 55.768 170.37 56.8108Z" fill="white"/>
<path d="M186.131 62.7164C184.386 62.7164 182.8 62.2908 181.378 61.4396C179.956 60.5883 178.824 59.4391 177.989 57.992C177.154 56.5448 176.736 54.9327 176.736 53.1504C176.736 51.3681 177.154 49.8039 177.989 48.3887C178.824 46.9682 179.95 45.8403 181.378 44.9996C182.8 44.159 184.386 43.7387 186.131 43.7387C187.876 43.7387 189.494 44.1537 190.905 44.9784C192.317 45.803 193.438 46.9362 194.273 48.3674C195.108 49.7986 195.526 51.3947 195.526 53.1504C195.526 54.9061 195.108 56.5767 194.273 58.0132C193.438 59.4444 192.317 60.5883 190.905 61.4396C189.494 62.2908 187.902 62.7164 186.131 62.7164ZM186.131 60.0829C187.416 60.0829 188.547 59.7849 189.536 59.1944C190.524 58.5985 191.307 57.7738 191.883 56.7151C192.46 55.6563 192.75 54.4699 192.75 53.1504C192.75 51.831 192.46 50.6658 191.883 49.6443C191.307 48.6228 190.524 47.8194 189.536 47.2235C188.547 46.6277 187.41 46.335 186.131 46.335C184.851 46.335 183.746 46.633 182.742 47.2235C181.743 47.8194 180.96 48.6228 180.394 49.6443C179.829 50.6658 179.549 51.831 179.549 53.1504C179.549 54.4699 179.829 55.6882 180.394 56.731C180.96 57.7791 181.743 58.5985 182.742 59.189C183.741 59.7849 184.873 60.0775 186.131 60.0775V60.0829Z" fill="white"/>
<path d="M215.31 51.1713V62.3281H212.577V51.6394C212.577 50.038 212.106 48.7398 211.17 47.7449C210.235 46.7554 208.992 46.2552 207.454 46.2552C206.402 46.2552 205.476 46.484 204.683 46.9522C203.885 47.4151 203.256 48.0482 202.796 48.8463C202.33 49.6496 202.103 50.5701 202.103 51.6022V62.3281H199.407V44.1218H202.103V46.8032C202.711 45.9147 203.488 45.2071 204.435 44.6698C205.524 44.0526 206.777 43.7387 208.189 43.7387C209.6 43.7387 210.8 44.0792 211.884 44.7443C212.963 45.4146 213.803 46.3191 214.406 47.4576C215.004 48.5962 215.31 49.8358 215.31 51.1766V51.1713Z" fill="white"/>
<path d="M235.459 47.979C234.724 46.6489 233.725 45.6115 232.456 44.8666C231.187 44.1164 229.728 43.744 228.089 43.744C226.344 43.744 224.769 44.159 223.357 44.9837C221.94 45.8136 220.83 46.9416 220.005 48.3727C219.18 49.8092 218.773 51.416 218.773 53.1983C218.773 54.9806 219.191 56.6299 220.026 58.0771C220.862 59.5242 221.993 60.6574 223.431 61.4874C224.869 62.3121 226.492 62.7271 228.316 62.7271C229.755 62.7271 231.097 62.4451 232.34 61.8918C233.582 61.3385 234.629 60.5564 235.48 59.5508L233.746 57.7632C233.107 58.5665 232.319 59.1677 231.394 59.5668C230.474 59.9711 229.458 60.168 228.359 60.168C226.995 60.168 225.8 59.87 224.753 59.2742C223.717 58.6836 222.908 57.8536 222.331 56.7949C221.914 56.0287 221.649 55.1828 221.533 54.2411H236.358C236.437 53.8793 236.485 53.5654 236.511 53.2941C236.538 53.0174 236.548 52.7833 236.548 52.5811C236.548 50.8467 236.184 49.3198 235.454 47.9843L235.459 47.979ZM221.549 51.9108C221.655 51.0116 221.909 50.2029 222.294 49.49C222.85 48.4738 223.611 47.6758 224.589 47.1065C225.562 46.5425 226.704 46.2552 228.015 46.2552C229.326 46.2552 230.341 46.5212 231.23 47.0533C232.118 47.58 232.795 48.3302 233.27 49.2985C233.641 50.054 233.852 50.9212 233.915 51.9108H221.549Z" fill="white"/>
<path d="M256.19 51.1713V62.3281H253.456V51.6394C253.456 50.038 252.986 48.7398 252.05 47.7449C251.114 46.7554 249.872 46.2552 248.333 46.2552C247.286 46.2552 246.361 46.484 245.563 46.9522C244.764 47.4151 244.141 48.0482 243.675 48.8463C243.215 49.6496 242.988 50.5701 242.988 51.6022V62.3281H240.292V44.1218H242.988V46.7979C243.591 45.9094 244.368 45.2071 245.314 44.6698C246.403 44.0526 247.657 43.7387 249.068 43.7387C250.48 43.7387 251.685 44.0792 252.764 44.7443C253.842 45.4146 254.683 46.3191 255.286 47.4576C255.888 48.5962 256.19 49.8358 256.19 51.1766V51.1713Z" fill="white"/>
<path d="M269.085 62.7164C267.314 62.7164 265.717 62.2961 264.295 61.4555C262.873 60.6149 261.741 59.4763 260.906 58.0292C260.071 56.5821 259.653 54.97 259.653 53.1877C259.653 51.4054 260.071 49.7986 260.906 48.3674C261.741 46.9362 262.867 45.803 264.295 44.9784C265.717 44.1537 267.314 43.7387 269.085 43.7387C270.444 43.7387 271.713 43.9994 272.897 44.5155C274.076 45.0316 275.075 45.7551 275.9 46.6862L274.129 48.5058C273.51 47.8088 272.77 47.2714 271.898 46.899C271.025 46.5266 270.089 46.335 269.09 46.335C267.805 46.335 266.663 46.633 265.664 47.2235C264.665 47.8194 263.882 48.6228 263.317 49.6443C262.751 50.6658 262.471 51.8469 262.471 53.1877C262.471 54.5284 262.751 55.6882 263.317 56.731C263.882 57.7791 264.665 58.5985 265.664 59.189C266.663 59.7849 267.805 60.0775 269.09 60.0775C270.116 60.0775 271.068 59.8913 271.94 59.5136C272.812 59.1412 273.558 58.6038 274.171 57.9068L275.979 59.7264C275.133 60.6841 274.113 61.4183 272.918 61.9343C271.723 62.4504 270.449 62.7111 269.09 62.7111L269.085 62.7164Z" fill="white"/>
<path d="M280.706 40.174C280.193 40.174 279.754 39.9878 279.4 39.6101C279.04 39.2377 278.861 38.7907 278.861 38.2747C278.861 37.732 279.04 37.2798 279.4 36.918C279.76 36.5562 280.193 36.3753 280.706 36.3753C281.272 36.3753 281.726 36.5562 282.075 36.918C282.424 37.2798 282.593 37.732 282.593 38.2747C282.593 38.8174 282.419 39.2377 282.075 39.6101C281.726 39.9825 281.272 40.174 280.706 40.174ZM279.358 62.328V44.1217H282.091V62.328H279.358Z" fill="white"/>
<path d="M301.532 44.1271V47.1757C301.479 47.0799 301.421 46.9895 301.357 46.8937C300.68 45.8988 299.792 45.122 298.698 44.5687C297.609 44.0154 296.371 43.7334 294.986 43.7334C293.289 43.7334 291.761 44.1537 290.402 44.9943C289.038 45.8349 287.97 46.9682 287.188 48.4047C286.4 49.8359 286.014 51.4532 286.014 53.2622C286.014 55.0711 286.405 56.6459 287.188 58.0665C287.97 59.487 289.038 60.6149 290.402 61.4555C291.761 62.2961 293.3 62.7164 295.023 62.7164C296.382 62.7164 297.603 62.4345 298.698 61.8812C299.787 61.3278 300.675 60.5457 301.357 59.5402C301.421 59.4497 301.479 59.354 301.532 59.2529V62.3227H304.228V44.1165H301.532V44.1271ZM299.972 58.2261C298.835 59.4923 297.318 60.1254 295.452 60.1254C294.167 60.1254 293.03 59.8275 292.026 59.2316C291.026 58.6411 290.238 57.827 289.657 56.7896C289.081 55.7627 288.795 54.571 288.795 53.2302C288.795 51.8895 289.081 50.6924 289.657 49.6496C290.238 48.6069 291.021 47.7822 292.01 47.1916C292.993 46.5958 294.13 46.2978 295.415 46.2978C296.699 46.2978 297.767 46.5904 298.703 47.1704C299.644 47.7503 300.368 48.5643 300.902 49.6124C301.426 50.6552 301.69 51.8682 301.69 53.2356C301.69 55.2999 301.125 56.9705 299.977 58.2314L299.972 58.2261Z" fill="white"/>
<path d="M309.309 62.328V34.9016H312.005V62.328H309.309Z" fill="white"/>
<path d="M75.8323 16.8709L70.2968 13.2477L69.123 14.9609L48.7837 45.2976L33.8478 28.2671L11.0975 62.3281H0L35.0215 9.30533L48.4612 28.698L63.1539 8.56048L57.3752 4.77239L72.5543 1.62805L75.8323 16.8709Z" fill="url(#paint0_linear_17_138)"/>
<path d="M47.2664 62.3281H58.7816L77.4502 35.1729L94.9451 62.3281H106.571L77.8784 20.5739L47.2664 62.3281Z" fill="url(#paint1_linear_17_138)"/>
</g>
<defs>
<linearGradient id="paint0_linear_17_138" x1="37.9135" y1="62.3281" x2="37.9135" y2="1.62805" gradientUnits="userSpaceOnUse">
<stop stop-color="white"/>
<stop offset="1" stop-color="#BF8C66"/>
</linearGradient>
<linearGradient id="paint1_linear_17_138" x1="76.9162" y1="62.3281" x2="76.9162" y2="20.5739" gradientUnits="userSpaceOnUse">
<stop stop-color="white"/>
<stop offset="1" stop-color="#BF8C66"/>
</linearGradient>
<clipPath id="clip0_17_138">
<rect width="312" height="70" fill="white"/>
</clipPath>
</defs>
</svg>
